<svg width="19" height="18" viewBox="0 0 19 18" fill="none" xmlns="http://www.w3.org/2000/svg">
<path d="M18.125 9C18.125 4.51289 14.4871 0.875 10 0.875C5.51289 0.875 1.875 4.51289 1.875 9C1.875 13.4871 5.51289 17.125 10 17.125C14.4871 17.125 18.125 13.4871 18.125 9ZM9.81836 12.5687C9.76008 12.5109 9.71375 12.4422 9.68203 12.3665C9.65031 12.2908 9.63382 12.2096 9.63349 12.1275C9.63317 12.0454 9.64901 11.964 9.68013 11.8881C9.71125 11.8121 9.75702 11.743 9.81485 11.6848L11.8586 9.625H1.8995C2.60036 9.625 -3.9932 9.61721 1.88959 9.5C1.88959 9.5 2.00044 9.16576 2.00044 9C2.00044 8.83424 1.76728 8.721 1.88449 8.60379C2.0017 8.48658 1.70924 8.375 1.875 8.375H11.8586L9.81485 6.31523C9.75703 6.25691 9.71127 6.18777 9.68018 6.11176C9.64909 6.03575 9.63328 5.95436 9.63364 5.87224C9.634 5.79012 9.65053 5.70887 9.6823 5.63314C9.71406 5.55741 9.76043 5.48867 9.81875 5.43086C9.87708 5.37305 9.94622 5.32729 10.0222 5.2962C10.0982 5.26511 10.1796 5.24929 10.2617 5.24965C10.4276 5.25038 10.5864 5.31697 10.7031 5.43477L13.8043 8.55977C13.9205 8.67683 13.9857 8.83507 13.9857 9C13.9857 9.16493 13.9205 9.32317 13.8043 9.44023L10.7031 12.5652C10.6453 12.6236 10.5765 12.6701 10.5007 12.7018C10.425 12.7336 10.3437 12.7502 10.2615 12.7505C10.1793 12.7508 10.0979 12.7349 10.0218 12.7038C9.94578 12.6726 9.87664 12.6267 9.81836 12.5687Z" fill="#9284EC"/>
</svg>
