<svg width="27" height="27" viewBox="0 0 27 27" fill="none" xmlns="http://www.w3.org/2000/svg">
<path d="M17.7188 17.7188H1.68753C1.54023 17.7191 1.39542 17.6809 1.26749 17.6079C1.13956 17.5349 1.03297 17.4296 0.958311 17.3027C0.883654 17.1757 0.843536 17.0314 0.841945 16.8841C0.840355 16.7368 0.877347 16.5917 0.949244 16.4632L8.96487 2.11941C9.03807 1.98829 9.14495 1.87909 9.27445 1.80307C9.40396 1.72706 9.5514 1.68698 9.70157 1.68698C9.85174 1.68698 9.99918 1.72706 10.1287 1.80307C10.2582 1.87909 10.3651 1.98829 10.4383 2.11941L18.4539 16.4632C18.5257 16.5915 18.5626 16.7363 18.5612 16.8833C18.5597 17.0304 18.5199 17.1744 18.4456 17.3013C18.3713 17.4282 18.2652 17.5335 18.1377 17.6067C18.0102 17.6799 17.8658 17.7185 17.7188 17.7188Z" fill="white"/>
<path d="M17.7188 8.4375C17.1418 8.43737 16.5663 8.49604 16.0012 8.61258L19.9283 15.6405C20.1435 16.0257 20.2543 16.4605 20.2496 16.9018C20.245 17.343 20.125 17.7754 19.9017 18.156C19.6784 18.5366 19.3595 18.8522 18.9765 19.0715C18.5936 19.2908 18.16 19.4062 17.7188 19.4062H9.6678C10.1356 20.8938 11.0065 22.2226 12.1838 23.2451C13.3611 24.2677 14.7987 24.944 16.3371 25.199C17.8755 25.4539 19.4544 25.2776 20.8986 24.6895C22.3429 24.1014 23.5959 23.1246 24.5186 21.8675C25.4413 20.6104 25.9975 19.1223 26.1256 17.5682C26.2537 16.0141 25.9487 14.4549 25.2443 13.0637C24.5399 11.6725 23.4637 10.5037 22.1353 9.68703C20.8069 8.8704 19.2781 8.43789 17.7188 8.4375Z" fill="white"/>
</svg>
