<svg width="25" height="25" viewBox="0 0 25 25" fill="none" xmlns="http://www.w3.org/2000/svg">
<path d="M12.6328 22.9687C9.68849 22.9687 6.86477 21.7991 4.78282 19.7172C2.70088 17.6352 1.53125 14.8115 1.53125 11.8672C1.53125 7.36914 4.11523 3.33621 8.1161 1.59489C8.25711 1.53344 8.41335 1.51588 8.56448 1.5445C8.71561 1.57313 8.85461 1.64661 8.96337 1.75537C9.07214 1.86414 9.14562 2.00314 9.17424 2.15427C9.20287 2.30539 9.18531 2.46164 9.12386 2.60264C8.66448 3.65729 8.42188 5.00814 8.42188 6.50781C8.42188 11.7849 12.7151 16.0781 17.9922 16.0781C19.4919 16.0781 20.8427 15.8355 21.8974 15.3761C22.0384 15.3147 22.1946 15.2971 22.3457 15.3258C22.4969 15.3544 22.6359 15.4279 22.7446 15.5366C22.8534 15.6454 22.9269 15.7844 22.9555 15.9355C22.9841 16.0866 22.9666 16.2429 22.9051 16.3839C21.1638 20.3848 17.1309 22.9687 12.6328 22.9687Z" fill="white"/>
</svg>
