<svg width="14" height="12" viewBox="0 0 14 12" fill="none" xmlns="http://www.w3.org/2000/svg">
<path d="M10.375 8.25002C10.7174 7.56763 10.9375 6.81529 10.9375 6.00002C10.9375 5.17349 10.7266 4.43908 10.375 3.75002M12.0625 9.93752C12.7473 8.74221 13.1875 7.68752 13.1875 6.00002C13.1875 4.31252 12.7656 3.26838 12.0625 2.06252M3.54238 3.75002H1.09375C1.01916 3.75002 0.947621 3.77965 0.894876 3.83239C0.842132 3.88514 0.8125 3.95668 0.8125 4.03127V7.96877C0.8125 8.04336 0.842132 8.1149 0.894876 8.16764C0.947621 8.22039 1.01916 8.25002 1.09375 8.25002H3.54238C3.67239 8.25008 3.79836 8.29518 3.89887 8.37764L7.11461 11.0144C7.15654 11.0452 7.20621 11.0638 7.25809 11.0681C7.30997 11.0724 7.36202 11.0622 7.40844 11.0386C7.45487 11.0151 7.49385 10.9791 7.52105 10.9347C7.54825 10.8904 7.5626 10.8393 7.5625 10.7872V1.21279C7.56247 1.1608 7.54803 1.10983 7.52078 1.06555C7.49353 1.02127 7.45453 0.985405 7.40813 0.961948C7.36173 0.938492 7.30973 0.928358 7.25792 0.932671C7.2061 0.936985 7.1565 0.955578 7.11461 0.986385L3.89887 3.6231C3.79826 3.70531 3.6723 3.75015 3.54238 3.75002V3.75002Z" stroke="#3C3C3D" stroke-opacity="0.6" stroke-width="1.2" stroke-linecap="round" stroke-linejoin="round"/>
</svg>
