<svg width="25" height="25" viewBox="0 0 25 25" fill="none" xmlns="http://www.w3.org/2000/svg">
<path d="M16.2422 3.15332C15.292 2.12744 13.9648 1.5625 12.5 1.5625C11.0273 1.5625 9.69579 2.12402 8.74999 3.14355C7.79394 4.17432 7.32811 5.5752 7.43749 7.08789C7.65429 10.0723 9.92528 12.5 12.5 12.5C15.0747 12.5 17.3418 10.0728 17.562 7.08887C17.6728 5.58984 17.2041 4.19189 16.2422 3.15332ZM21.0937 23.4375H3.90624C3.68127 23.4404 3.45848 23.3932 3.25407 23.2992C3.04967 23.2051 2.86879 23.0668 2.7246 22.894C2.40722 22.5147 2.27929 21.9966 2.37401 21.4727C2.78612 19.1865 4.07226 17.2661 6.09374 15.918C7.88964 14.7212 10.1645 14.0625 12.5 14.0625C14.8354 14.0625 17.1103 14.7217 18.9062 15.918C20.9277 17.2656 22.2139 19.186 22.626 21.4722C22.7207 21.9961 22.5928 22.5142 22.2754 22.8936C22.1312 23.0664 21.9504 23.2048 21.746 23.2989C21.5416 23.393 21.3187 23.4404 21.0937 23.4375Z" fill="white"/>
</svg>
