<svg width="24" height="24" viewBox="0 0 24 24" fill="none" xmlns="http://www.w3.org/2000/svg">
<path d="M9.75003 24C9.51301 24.0012 9.28126 23.9301 9.08576 23.796C8.89026 23.662 8.74032 23.4715 8.65597 23.25L6.78847 18.3938C6.75065 18.2959 6.69279 18.207 6.6186 18.1329C6.54442 18.0587 6.45555 18.0008 6.35769 17.963L1.50003 16.0941C1.27876 16.0092 1.08843 15.8591 0.954181 15.6638C0.81993 15.4685 0.748061 15.237 0.748061 15C0.748061 14.763 0.81993 14.5316 0.954181 14.3362C1.08843 14.1409 1.27876 13.9909 1.50003 13.906L6.35628 12.0385C6.45414 12.0006 6.54301 11.9428 6.6172 11.8686C6.69138 11.7944 6.74924 11.7055 6.78706 11.6077L8.65597 6.75002C8.7409 6.52875 8.89092 6.33842 9.08625 6.20417C9.28158 6.06992 9.51302 5.99805 9.75003 5.99805C9.98705 5.99805 10.2185 6.06992 10.4138 6.20417C10.6091 6.33842 10.7592 6.52875 10.8441 6.75002L12.7116 11.6063C12.7494 11.7041 12.8073 11.793 12.8815 11.8672C12.9556 11.9414 13.0445 11.9992 13.1424 12.0371L17.9705 13.8947C18.2008 13.9801 18.3992 14.1343 18.5387 14.3365C18.6781 14.5386 18.752 14.7788 18.75 15.0244C18.7465 15.2573 18.6731 15.4837 18.5393 15.6744C18.4056 15.8652 18.2178 16.0113 18 16.0941L13.1438 17.9616C13.0459 17.9994 12.9571 18.0573 12.8829 18.1315C12.8087 18.2056 12.7508 18.2945 12.713 18.3924L10.8441 23.25C10.7597 23.4715 10.6098 23.662 10.4143 23.796C10.2188 23.9301 9.98706 24.0012 9.75003 24ZM4.12503 8.25002C3.98608 8.25002 3.85038 8.20791 3.73582 8.12925C3.62127 8.0506 3.53323 7.93908 3.48331 7.8094L2.693 5.7544C2.67587 5.70945 2.64944 5.66864 2.61543 5.63463C2.58142 5.60062 2.5406 5.57418 2.49566 5.55705L0.440659 4.76674C0.310992 4.71681 0.199495 4.62877 0.120855 4.51421C0.0422148 4.39966 0.00012207 4.26397 0.00012207 4.12502C0.00012207 3.98607 0.0422148 3.85039 0.120855 3.73583C0.199495 3.62128 0.310992 3.53324 0.440659 3.4833L2.49566 2.69299C2.54056 2.67578 2.58133 2.64932 2.61533 2.61532C2.64933 2.58132 2.6758 2.54055 2.693 2.49565L3.47628 0.458929C3.52046 0.339024 3.59647 0.233424 3.69616 0.153477C3.79584 0.0735309 3.91543 0.0222615 4.04207 0.0051792C4.1941 -0.0133035 4.34796 0.019499 4.47924 0.0983851C4.61052 0.177271 4.7117 0.297726 4.76675 0.440648L5.55707 2.49565C5.57427 2.54055 5.60074 2.58132 5.63474 2.61532C5.66874 2.64932 5.70951 2.67578 5.75441 2.69299L7.80941 3.4833C7.93907 3.53324 8.05057 3.62128 8.12921 3.73583C8.20785 3.85039 8.24994 3.98607 8.24994 4.12502C8.24994 4.26397 8.20785 4.39966 8.12921 4.51421C8.05057 4.62877 7.93907 4.71681 7.80941 4.76674L5.75441 5.55705C5.70947 5.57418 5.66865 5.60062 5.63464 5.63463C5.60063 5.66864 5.57419 5.70945 5.55707 5.7544L4.76675 7.8094C4.71683 7.93908 4.6288 8.0506 4.51424 8.12925C4.39969 8.20791 4.26399 8.25002 4.12503 8.25002ZM18.75 12C18.5984 12 18.4504 11.954 18.3255 11.8681C18.2006 11.7823 18.1046 11.6606 18.0502 11.5191L16.9796 8.73612C16.9607 8.68708 16.9318 8.64254 16.8947 8.6054C16.8575 8.56825 16.813 8.53932 16.7639 8.52049L13.981 7.44987C13.8396 7.39539 13.718 7.29936 13.6323 7.17444C13.5465 7.04951 13.5006 6.90154 13.5006 6.75002C13.5006 6.5985 13.5465 6.45054 13.6323 6.32561C13.718 6.20068 13.8396 6.10466 13.981 6.05018L16.7639 4.97955C16.813 4.96072 16.8575 4.93179 16.8947 4.89465C16.9318 4.8575 16.9607 4.81297 16.9796 4.76393L18.0422 2.00065C18.0907 1.86998 18.1738 1.7549 18.2825 1.66765C18.3912 1.58041 18.5215 1.52426 18.6596 1.50518C18.8255 1.4851 18.9933 1.521 19.1365 1.6072C19.2797 1.69339 19.39 1.82494 19.4499 1.98096L20.5205 4.76393C20.5393 4.81297 20.5683 4.8575 20.6054 4.89465C20.6426 4.93179 20.6871 4.96072 20.7361 4.97955L23.5191 6.05018C23.6605 6.10466 23.7821 6.20068 23.8678 6.32561C23.9535 6.45054 23.9994 6.5985 23.9994 6.75002C23.9994 6.90154 23.9535 7.04951 23.8678 7.17444C23.7821 7.29936 23.6605 7.39539 23.5191 7.44987L20.7361 8.52049C20.6871 8.53932 20.6426 8.56825 20.6054 8.6054C20.5683 8.64254 20.5393 8.68708 20.5205 8.73612L19.4499 11.5191C19.3955 11.6606 19.2995 11.7823 19.1746 11.8681C19.0496 11.954 18.9016 12 18.75 12Z" fill="white"/>
</svg>
